<svg width="44" height="32" viewBox="0 0 44 32" fill="none" xmlns="http://www.w3.org/2000/svg">
<g id="Group 67486">
<path id="Vector" d="M14.3691 9.23561C14.3691 9.48262 14.1646 9.68704 13.9176 9.68704H9.23304C8.98603 9.68704 8.78161 9.48262 8.78161 9.23561V4.55103C8.78161 4.29551 8.98603 4.09961 9.23304 4.09961C12.0693 4.09961 14.3691 6.39931 14.3691 9.23561ZM13.9176 17.1313H4.53993C4.29292 17.1313 4.0885 16.9268 4.0885 16.6798C4.0885 16.4328 4.29292 16.2284 4.53993 16.2284H13.9176C14.1646 16.2284 14.3691 16.4328 14.3691 16.6798C14.3691 16.9268 14.1646 17.1313 13.9176 17.1313ZM13.9176 19.8057H4.53993C4.29292 19.8057 4.0885 19.6013 4.0885 19.3543C4.0885 19.1073 4.29292 18.9029 4.53993 18.9029H13.9176C14.1646 18.9029 14.3691 19.1073 14.3691 19.3543C14.3691 19.6098 14.1646 19.8057 13.9176 19.8057ZM13.9176 22.4887H4.53993C4.29292 22.4887 4.0885 22.2843 4.0885 22.0373C4.0885 21.7903 4.29292 21.5859 4.53993 21.5859H13.9176C14.1646 21.5859 14.3691 21.7903 14.3691 22.0373C14.3691 22.2843 14.1646 22.4887 13.9176 22.4887ZM22.6906 14.9253V21.5774C22.6906 22.0799 22.2818 22.4887 21.7792 22.4887H19.8884C19.3858 22.4887 18.977 22.0799 18.977 21.5774V14.9253C18.977 14.4227 19.3773 14.0139 19.8884 14.0139H21.7792C22.2818 14.0139 22.6906 14.4227 22.6906 14.9253ZM28.3036 10.2407V21.5774C28.3036 22.0799 27.8947 22.4887 27.3922 22.4887H25.5013C24.9988 22.4887 24.59 22.0799 24.59 21.5774V10.2407C24.59 9.73814 24.9903 9.32931 25.5013 9.32931H27.3922C27.8947 9.32931 28.3036 9.73814 28.3036 10.2407ZM33.9081 14.9253V21.5774C33.9081 22.0799 33.4992 22.4887 32.9967 22.4887H31.0973C30.5948 22.4887 30.1859 22.0799 30.1859 21.5774V14.9253C30.1859 14.4227 30.5948 14.0139 31.0973 14.0139H32.9967C33.4992 14.0139 33.9081 14.4227 33.9081 14.9253ZM39.5211 12.1486V21.5774C39.5211 22.0799 39.1122 22.4887 38.6097 22.4887H36.7103C36.2078 22.4887 35.7989 22.0799 35.7989 21.5774V12.1486C35.7989 11.646 36.2078 11.2372 36.7103 11.2372H38.6097C39.1122 11.2372 39.5211 11.646 39.5211 12.1486Z" fill="#F5FBFF"/>
<g id="Group">
<path id="Vector_2" d="M21.8044 27.7598C21.4637 27.7598 21.1826 28.0408 21.1826 28.3815C21.1826 28.7222 21.4637 29.0033 21.8044 29.0033C22.1451 29.0033 22.4262 28.7222 22.4262 28.3815C22.4262 28.0408 22.1451 27.7598 21.8044 27.7598Z" fill="#F5FBFF"/>
<path id="Vector_3" d="M41.3351 0H2.27416C1.01358 0 0 1.01357 0 2.26564C0 2.98962 0 31.4634 0 29.7258C0 30.9779 1.01358 32 2.27416 32H41.3436C42.5957 32 43.6178 30.9779 43.6178 29.7258C43.6178 26.2592 43.6178 5.7152 43.6178 2.26564C43.6093 1.01357 42.5872 0 41.3351 0ZM21.8046 29.9132C20.9614 29.9132 20.2715 29.2233 20.2715 28.3801C20.2715 27.5369 20.9614 26.847 21.8046 26.847C22.6479 26.847 23.3378 27.5369 23.3378 28.3801C23.3378 29.2233 22.6479 29.9132 21.8046 29.9132ZM41.7951 24.7517H1.81421V2.26564C1.81421 2.01863 2.01863 1.81421 2.26564 1.81421H41.3351C41.5821 1.81421 41.7866 2.01863 41.7866 2.26564V24.7517H41.7951Z" fill="#F5FBFF"/>
</g>
</g>
</svg>
